# xmcd
#
# Track frame offsets:
#  150
#  10315
#  23332
#  33666
#  43455
#  54385
#  66214
#  84946
#  98430
#  112771
#
# Disc length: 1744 seconds
#
# Revision: 1
# Processed by: cddbd v1.4PL0 Copyright (c) Steve Scherf et al.
# Submitted via: AltoMP3_Maker 3.0
#
DISCID=6e06ce0a
DTITLE=Various Artist - Roadrunner
DYEAR=1900
DGENRE=
TTITLE0=Truck Drivin' Son Of A Gun
TTITLE1=Tie A Yellow Ribbon 'Round The Old Oak Tree
TTITLE2=The Bridge Washed Out
TTITLE3=King Of The Open Road
TTITLE4=Kansas City
TTITLE5=How Far To Little Rock
TTITLE6=White Knight
TTITLE7=Endless Black Ribbon
TTITLE8=Way Out On The Moutain
TTITLE9=Giddy-Up-Go Answer
EXTD=
EXTT0=
EXTT1=
EXTT2=
EXTT3=
EXTT4=
EXTT5=
EXTT6=
EXTT7=
EXTT8=
EXTT9=
PLAYORDER=
